<svg 
 xmlns="http://www.w3.org/2000/svg"
 xmlns:xlink="http://www.w3.org/1999/xlink"
 width="11px" height="14px">
<path fill-rule="evenodd"  fill="rgb(193, 206, 224)"
 d="M10.635,6.342 L1.131,0.126 C1.015,0.050 0.883,0.010 0.747,0.010 C0.344,0.010 0.016,0.358 0.017,0.788 L0.017,10.113 C0.017,10.542 0.344,10.890 0.748,10.890 C1.151,10.890 1.479,10.542 1.479,10.113 L1.479,2.179 L8.857,7.004 L0.365,12.559 C0.021,12.784 -0.087,13.262 0.125,13.628 C0.336,13.993 0.787,14.108 1.131,13.883 L10.635,7.666 C10.732,7.602 10.815,7.515 10.875,7.411 C11.086,7.045 10.979,6.567 10.635,6.342 Z"/>
</svg>